<?xml version="1.0" encoding="utf-8"?>
<!-- Generator: Adobe Illustrator 18.1.0, SVG Export Plug-In . SVG Version: 6.00 Build 0)  -->
<svg version="1.1" id="Layer_1" xmlns="http://www.w3.org/2000/svg" xmlns:xlink="http://www.w3.org/1999/xlink" x="0px" y="0px"
	 viewBox="0 0 283.4 184.8" enable-background="new 0 0 283.4 184.8" xml:space="preserve">
<g>
	<path d="M283.4,30.5c-0.5,2.6-1,5.2-1.5,7.7c-1.8,10.4-3.6,20.9-5.4,31.3c-0.6,3.4-1.1,6.8-1.9,10.1c-0.7,3.1-2.1,6-4.9,7.8
		c-2.2,1.4-4.7,1.5-7.2,1.5c-16.1,0-32.2,0-48.4,0c-1.3,0-2.6-0.1-3.9-0.4c-4.2-0.8-6.8-3.7-6.7-8c0-2.9,0.5-5.7,1-8.5
		c0.9-5.3,1.8-10.6,2.8-15.9c0.3-1.7,0.8-3.3,1.5-4.9c1.5-3.3,4.3-5.1,7.9-5.1c11.9-0.1,23.8,0,35.6-0.1c3,0,2.3,0.4,2.9-2.4
		c0.4-1.6,0.6-3.2,0.9-4.8c0.3-1.7-0.3-2.5-2-2.6c-0.3,0-0.6,0-1,0c-13.6,0-27.1,0-40.7,0c-10.4,0.1-18.9,7.1-20.8,17
		c-1.1,6-2,12-2.9,18c-0.7,4.7-1.4,9.4-2.2,14.1c-0.3,1.8-1.9,3.4-3.8,3.5c-6.4,0.1-12.8,0.1-19.2,0.1c-2,0-2.9-1.3-2.6-3.4
		c0.4-2.5,0.8-5,1.3-7.4c1.9-11.1,3.8-22.1,5.6-33.2c0.5-3,1-5.9,1.5-8.9c0.4-2.2-0.1-4.1-1.7-5.6c-1.3-1.3-1.7-2.7-1.3-4.4
		c0.5-2.2,0.8-4.5,1.2-6.7c0.1-0.6,0.3-0.8,0.9-0.8c6.1,0.1,12.2-0.1,18.2,0.3c5.1,0.3,7.6,2.3,9.1,7.9c0.2-0.2,0.3-0.4,0.4-0.6
		c2.4-4.9,6.6-7,11.8-7.4c1.9-0.2,3.8-0.2,5.6-0.2c18.6,0,37.1,0,55.7,0c2.4,0,5,0.3,7.3,0.9c3.6,0.9,5.8,3.3,6.4,7
		c0,0.1,0.1,0.3,0.2,0.4C283.4,27.9,283.4,29.2,283.4,30.5z M252.3,61c-0.3,0-0.5-0.1-0.6-0.1c-6.6,0-13.3,0-19.9,0c-2,0-3,1-3.2,3
		c-0.2,1.5-0.4,3.1-0.5,4.6c-0.2,1.4,0.5,2.3,1.9,2.5c0.3,0,0.6,0.1,0.8,0.1c5.2,0,10.3,0,15.5,0c2.7,0,4.5-1.3,5-3.6
		C251.7,65.4,251.9,63.2,252.3,61z"/>
	<path d="M0,129.1c7.7-5.3,16.2-8.9,25.2-11.3c5.6-1.4,11.2-2.2,17-2.1c13.1,0.3,25.8,2.7,37.8,8.2c9.2,4.1,18.6,7.4,28.5,9.4
		c8.7,1.8,17.3,1.5,26,0.1c7.4-1.3,14.7-3.1,21.7-5.9c0.4-0.1,0.9,0,1.3,0c-0.2,0.4-0.3,1-0.6,1.3c-4.4,3.3-9.2,5.8-14.3,8
		c-7,3.1-14.3,5.4-22,6.3c-5.3,0.6-10.5,0.2-15.8-0.5c-9.8-1.3-19-4.3-28-8.4c-10.2-4.7-20.8-8-32-9.8c-6-1-12-0.9-18-0.2
		c-8.6,0.9-17,2.8-25.1,5.8c-0.5,0.2-1.1,0.1-1.6,0.1C0,129.8,0,129.4,0,129.1z"/>
	<path d="M152.2,0c0.5,0.2,1,0.3,1.6,0.5c6,1.5,8.4,5.8,6.6,11.8c-0.4,0-0.8,0-1.2,0c-7.6,0-15.3,0-22.9,0c-3.9,0-6.1-2.7-5.4-6.5
		c0.4-1.9,0.7-3.9,1-5.8C138.6,0,145.4,0,152.2,0z"/>
	<path d="M92.6,184.8c-0.1-0.1-0.3-0.2-0.4-0.2c-4.6-1.1-7.2-4.2-7.5-9c-0.4-6.5,2.8-12.5,8.2-15c3.2-1.5,6.5-1.7,9.8-0.6
		c3.7,1.2,5.5,4,5.9,7.7c0.5,4.4-0.5,8.4-3.1,12c-2,2.8-4.8,4.2-8.1,4.9c-0.3,0.1-0.6,0.2-0.9,0.3C95.2,184.8,93.9,184.8,92.6,184.8
		z M89.7,174.1c-0.1,5.1,2.8,7.7,6.9,6.6c1.1-0.3,2.2-1,3.1-1.7c3-2.8,4.2-6.4,4-10.4c-0.2-4.5-4.1-6.6-8.1-4.7
		c-0.9,0.4-1.8,1.1-2.5,1.9C90.8,168.3,89.9,171.4,89.7,174.1z"/>
	<path d="M21.6,184.8c-1.6-0.4-3.3-0.8-5.1-1.3c0.4-1.4,0.8-2.8,1.2-4c1.7,0.5,3.3,1,5,1.4c1.5,0.3,3,0,4.2-0.8
		c1.8-1.2,2-3.8,0.4-5.3c-0.5-0.5-1.2-0.9-1.9-1.3c-0.8-0.5-1.7-1-2.6-1.5c-4.2-2.5-3.4-8.6,0.1-10.8c2.6-1.7,5.5-1.9,8.4-1.5
		c1.4,0.1,2.7,0.5,4.1,0.8c-0.4,1.5-0.8,2.7-1.1,3.9c-1.4-0.4-2.6-0.8-3.9-1c-1.2-0.1-2.4,0-3.5,0.4c-2.1,0.7-2.5,2.8-0.9,4.4
		c0.5,0.5,1.2,0.9,1.8,1.4c0.7,0.5,1.4,0.9,2.1,1.3c2.6,1.6,3.7,3.9,3.4,7c-0.4,3.2-2.1,5.3-5.1,6.3c-0.9,0.3-1.9,0.5-2.9,0.8
		C24.2,184.8,22.9,184.8,21.6,184.8z"/>
	<path d="M233.5,184.8c-1.6-0.4-3.3-0.8-5.1-1.3c0.4-1.5,0.8-2.8,1.2-4c1.7,0.5,3.3,1.2,5,1.4c1.3,0.1,2.8-0.1,4-0.7
		c2.1-1,2.4-3.9,0.6-5.4c-0.7-0.7-1.6-1.1-2.5-1.7c-0.6-0.4-1.2-0.7-1.7-1c-4.4-2.6-3.5-8.9,0.2-11.1c2.6-1.5,5.4-1.7,8.2-1.4
		c1.4,0.2,2.7,0.5,4.1,0.8c-0.4,1.5-0.8,2.7-1.1,3.9c-1.4-0.4-2.6-0.8-3.9-1c-1.2-0.1-2.4,0-3.5,0.4c-2.1,0.7-2.5,2.8-0.9,4.4
		c0.6,0.5,1.3,1,1.9,1.4c0.7,0.4,1.4,0.8,2,1.3c2.6,1.6,3.7,3.9,3.4,7c-0.4,3.2-2.1,5.3-5.1,6.3c-0.9,0.3-1.9,0.5-2.9,0.8
		C236.1,184.8,234.8,184.8,233.5,184.8z"/>
	<path d="M38.4,36.2c-0.7,3.9-1.3,7.6-1.9,11.3c-2.1,12.4-4.2,24.7-6.3,37.1c-0.5,3.1-2,4.3-5.3,4.3c-5.6,0-11.1,0-16.7,0
		c-2.7,0-3.7-1.2-3.3-3.9c0.5-3,1-6,1.5-9c1.8-10.8,3.6-21.7,5.4-32.5c0.4-2.6,0.9-5.3,1.2-7.9c0.2-1.8-0.3-3.6-1.7-4.8
		c-1.7-1.6-2.3-3.3-1.7-5.7c0.5-1.9,0.6-3.9,0.8-5.8c0.1-0.9,0.5-1.1,1.3-1.1c30.9,0,61.7,0,92.6,0c1.9,0,3.8,0.2,5.7,0.7
		c5.1,1.2,7.6,4.8,6.7,10c-1.7,10.4-3.6,20.7-5.3,31c-1.4,8.2-2.8,16.4-4.2,24.6c-0.5,2.8-1.9,4.1-4.8,4.1
		c-5.7,0.1-11.4,0.1-17.1,0.1c-0.3,0-0.6,0-0.8,0c-2.3-0.2-3.2-1.4-2.8-3.6c1.8-10.7,3.7-21.5,5.6-32.2c0.7-4.2,1.5-8.5,2.2-12.7
		c0.4-2.7-0.7-4-3.4-4.1c-2.7,0-5.4,0-8.2,0c-0.7,0-1,0.2-1.2,1c-2.5,14.7-4.9,29.4-7.4,44c-0.2,1.3-0.5,2.7-0.7,4
		c-0.4,2.3-2,3.6-4.2,3.6c-6,0.1-11.9,0.1-17.9,0.1c-3.1,0-4-1-3.5-4c1.4-8.6,2.9-17.2,4.4-25.8c1.1-6.2,2.1-12.4,3.2-18.5
		c0.1-0.5,0.1-1,0.1-1.4c0-1.7-0.7-2.6-2.5-2.8c-0.4-0.1-0.8-0.1-1.2-0.1C44.2,36.2,41.3,36.2,38.4,36.2z"/>
	<path d="M128.2,18.3c4.9,0,9.7-0.1,14.4,0c2.6,0.1,5.3,0.1,7.8,0.7c5.8,1.4,7.2,5.3,6.3,10.7c-2,12.2-4.1,24.3-6.2,36.5
		c-1.1,6.3-2.2,12.6-3.4,18.9c-0.4,2.4-2,3.7-4.4,3.7c-5.9,0-11.8,0.1-17.7,0.1c-0.4,0-0.8,0-1.2-0.1c-2.1-0.2-3-1.4-2.6-3.4
		c0.5-3.4,1.2-6.8,1.7-10.2c1.8-10.5,3.6-20.9,5.4-31.4c0.4-2.4,0.8-4.7,1.2-7.1c0.4-2.3-0.1-4.5-1.6-6.3c-1.2-1.4-1.5-2.8-1.1-4.7
		C127.5,23.4,127.8,20.9,128.2,18.3z"/>
	<path d="M226.1,132.3c-12.9-0.2-25.2-3.3-36.9-8.7c-10.5-4.8-21.3-8.4-32.7-10.3c-6.5-1.1-13-0.9-19.6-0.2
		c-8.2,1-16.3,2.8-24.1,5.7c-0.4,0.2-1,0-1.4,0c0.3-0.5,0.4-1.1,0.8-1.4c6.6-4.4,13.8-7.5,21.4-9.8c9-2.7,18.2-3.4,27.6-2.5
		c9.8,1,19.4,3.1,28.4,7.1c7.8,3.5,15.8,6.5,24.1,8.7c7.5,2,15.2,3.1,23,2.5c10.4-0.8,20.4-3.1,30.1-6.8c0.5-0.2,1.2-0.1,1.8-0.2
		c-0.3,0.5-0.6,1.2-1,1.5c-7,5-14.7,8.5-22.8,11.2C238.7,131.1,232.5,132.3,226.1,132.3z"/>
	<path d="M123.9,159.8c1.5,0,2.9,0,4.3,0c0.2,0,0.6,0.6,0.6,0.9c0.2,5.1,0.4,10.3,0.6,15.5c0,0.7,0.1,1.3,0.4,2
		c0.7-1.7,1.5-3.4,2.2-5.1c1.8-4.1,3.6-8.2,5.3-12.3c0.3-0.7,0.7-1,1.4-1c1.8,0,3.7,0,5.6,0c0,6.3,0,12.3,0,18.4
		c0.1,0,0.2,0,0.3,0.1c0.2-0.4,0.4-0.7,0.6-1.1c2.5-5.4,5-10.9,7.5-16.3c0.4-0.8,0.8-1.1,1.7-1.1c1.2,0.1,2.4,0,3.8,0
		c-0.3,0.8-0.6,1.4-0.9,2c-3.4,7.2-6.9,14.4-10.3,21.6c-0.3,0.7-0.7,0.9-1.5,0.9c-1.7-0.1-3.3,0-5.2,0c0-6.4,0-12.8,0-19.1
		c-0.1,0-0.3-0.1-0.4-0.1c-0.2,0.4-0.4,0.8-0.6,1.2c-2.5,5.6-5,11.2-7.4,16.9c-0.4,0.9-0.8,1.2-1.8,1.1c-1.6-0.1-3.1,0-4.8,0
		C124.9,176.1,124.4,168.1,123.9,159.8z"/>
	<path d="M210.9,172.3c1.3,0.6,1.7,1.7,2,2.9c0.7,3,1.4,6,2.2,9.2c-1.6,0-3.2,0-4.7,0c-0.2,0-0.5-0.5-0.6-0.8
		c-0.5-2.2-0.9-4.4-1.4-6.7c-0.5-2.2-2.1-3.3-4.2-2.5c-0.3,0.1-0.5,0.6-0.6,1c-0.6,2.7-1.2,5.5-1.7,8.2c-0.1,0.7-0.4,0.9-1.1,0.9
		c-1.3,0-2.5,0-4,0c0.6-2.7,1.1-5.3,1.6-7.8c1.1-5.2,2.2-10.3,3.2-15.5c0.2-0.9,0.6-1.2,1.5-1.2c3.1,0.1,6.2,0,9.3,0.3
		c3.2,0.3,4.6,1.8,4.9,4.6c0.4,2.9-1,5.5-3.5,6.6C212.9,171.7,212,171.9,210.9,172.3z M204.6,170.4c1.8-0.2,3.4-0.2,4.9-0.7
		c0.9-0.3,1.9-1.1,2.4-2c0.9-1.7,0.7-4-2.3-4.1c-1-0.1-1.9-0.1-2.9,0c-0.3,0-0.7,0.4-0.8,0.7C205.4,166.3,205.1,168.1,204.6,170.4z"
		/>
	<path d="M67.1,184.3c-1.7,0-3.2,0-4.9,0c0.7-3.5,1.4-7,2.2-10.6c-0.4-0.1-0.8-0.1-1.1-0.1c-2.6,0-5.1,0-7.7,0
		c-0.9,0-1.2,0.3-1.4,1.2c-0.6,3.2-1.3,6.3-2,9.5c-1.6,0-3.2,0-4.9,0c0.5-2.2,0.9-4.4,1.3-6.5c1.2-5.7,2.4-11.3,3.5-17
		c0.2-0.8,0.5-1,1.2-0.9c1.2,0,2.5,0,3.9,0c-0.7,3.3-1.3,6.6-2,9.9c3.4,0,6.6,0,9.9,0c0.7-3.3,1.4-6.5,2.1-9.8c1.6,0,3.1,0,4.8,0
		C70.5,168,68.8,176.1,67.1,184.3z"/>
	<path d="M176.2,163.6c-0.4,2.1-0.8,4-1.3,6c2.8,0,5.6,0,8.5,0c-0.2,1.3-0.4,2.4-0.7,3.5c-0.1,0.2-0.6,0.4-1,0.4
		c-2.1,0-4.2,0.1-6.4,0c-0.9,0-1.4,0.2-1.6,1.2c-0.3,1.9-0.8,3.7-1.2,5.7c3.3,0,6.4,0,9.7,0c-0.3,1.3-0.5,2.4-0.8,3.7
		c-4.8,0-9.6,0-14.6,0c1.7-8.1,3.4-16.2,5.1-24.3c4.8,0,9.5,0,14.4,0c-0.2,1.3-0.5,2.5-0.7,3.7C182.6,163.6,179.4,163.6,176.2,163.6
		z"/>
</g>
</svg>
